<svg width="254" height="273" viewBox="0 0 254 273" fill="none" xmlns="http://www.w3.org/2000/svg">
<path d="M109.979 250.027L102.709 210.398L158.084 205.443L164.461 239.885L135.696 232.177L109.979 250.027Z" fill="#FD8204" stroke="black"/>
<path d="M83.3452 242.89L109.456 212.206L63.9771 180.227L41.2339 206.866L69.9986 214.574L83.3452 242.89Z" fill="#01B3B5" stroke="black"/>
<g filter="url(#filter0_d_102_43)">
<path d="M150.455 29.6045C153.938 28.0202 158.054 29.1233 160.278 32.2365L162.491 35.3347C164.267 37.8206 167.303 39.0783 170.316 38.576L174.072 37.9501C177.846 37.321 181.537 39.452 182.879 43.0347L184.214 46.6001C185.286 49.4608 187.893 51.4615 190.934 51.7563L194.724 52.1236C198.532 52.4928 201.545 55.5064 201.914 59.3144L202.282 63.104C202.577 66.1446 204.577 68.752 207.438 69.8237L211.003 71.1593C214.586 72.5015 216.717 76.1924 216.088 79.9662L215.462 83.7217C214.96 86.735 216.217 89.7714 218.703 91.5469L221.802 93.7599C224.915 95.9836 226.018 100.1 224.434 103.583L222.857 107.048C221.592 109.829 222.021 113.087 223.962 115.446L226.382 118.385C228.814 121.339 228.814 125.601 226.382 128.554L223.962 131.494C222.021 133.852 221.592 137.111 222.857 139.891L224.434 143.357C226.018 146.839 224.915 150.956 221.802 153.18L218.703 155.393C216.217 157.168 214.96 160.204 215.462 163.218L216.088 166.973C216.717 170.747 214.586 174.438 211.003 175.78L207.438 177.116C204.577 178.188 202.577 180.795 202.282 183.836L201.914 187.625C201.545 191.433 198.532 194.447 194.724 194.816L190.934 195.183C187.893 195.478 185.286 197.479 184.214 200.339L182.879 203.905C181.537 207.488 177.846 209.619 174.072 208.989L170.316 208.364C167.303 207.861 164.267 209.119 162.491 211.605L160.278 214.703C158.054 217.816 153.938 218.919 150.455 217.335L146.99 215.758C144.209 214.493 140.951 214.922 138.592 216.864L135.653 219.284C132.699 221.715 128.437 221.715 125.484 219.284L122.544 216.864C120.186 214.922 116.927 214.493 114.147 215.758L110.681 217.335C107.199 218.919 103.082 217.816 100.858 214.703L98.6455 211.605C96.8699 209.119 93.8336 207.861 90.8202 208.364L87.0647 208.989C83.2909 209.619 79.6 207.488 78.2578 203.905L76.9222 200.339C75.8505 197.479 73.2431 195.478 70.2025 195.183L66.4129 194.816C62.6049 194.447 59.5913 191.433 59.2221 187.625L58.8548 183.836C58.56 180.795 56.5593 178.188 53.6986 177.116L50.1332 175.78C46.5505 174.438 44.4196 170.747 45.0486 166.973L45.6745 163.218C46.1768 160.204 44.9191 157.168 42.4332 155.393L39.335 153.18C36.2218 150.956 35.1187 146.839 36.703 143.357L38.2797 139.891C39.5447 137.111 39.1158 133.852 37.1741 131.494L34.7542 128.554C32.3226 125.601 32.3226 121.339 34.7542 118.385L37.1741 115.446C39.1157 113.087 39.5447 109.829 38.2797 107.048L36.703 103.583C35.1187 100.1 36.2218 95.9836 39.335 93.7599L42.4332 91.5469C44.9191 89.7714 46.1768 86.735 45.6745 83.7217L45.0486 79.9662C44.4196 76.1924 46.5505 72.5015 50.1332 71.1593L53.6986 69.8237C56.5593 68.752 58.56 66.1446 58.8548 63.104L59.2221 59.3144C59.5913 55.5064 62.6049 52.4928 66.4129 52.1236L70.2025 51.7563C73.2431 51.4615 75.8505 49.4608 76.9222 46.6001L78.2578 43.0347C79.6 39.452 83.2909 37.321 87.0647 37.9501L90.8202 38.576C93.8336 39.0783 96.8699 37.8206 98.6455 35.3347L100.858 32.2365C103.082 29.1233 107.199 28.0202 110.681 29.6045L114.147 31.1812C116.927 32.4462 120.186 32.0172 122.544 30.0756L125.484 27.6557C128.437 25.2241 132.699 25.2241 135.653 27.6557L138.592 30.0756C140.951 32.0172 144.209 32.4462 146.99 31.1812L150.455 29.6045Z" fill="white"/>
</g>
<path d="M146.459 44.5195C149.941 42.9352 154.058 44.0383 156.282 47.1515L157.114 48.3165C158.889 50.8024 161.926 52.0601 164.939 51.5579L166.351 51.3225C170.125 50.6935 173.816 52.8244 175.158 56.4071L175.66 57.7478C176.732 60.6086 179.339 62.6093 182.38 62.904L183.805 63.0421C187.613 63.4113 190.627 66.4249 190.996 70.2329L191.134 71.6579C191.429 74.6986 193.429 77.3059 196.29 78.3776L197.631 78.8799C201.213 80.222 203.344 83.913 202.715 87.6867L202.48 89.099C201.978 92.1123 203.235 95.1486 205.721 96.9242L206.886 97.7563C210 99.98 211.103 104.097 209.518 107.579L208.926 108.882C207.66 111.663 208.089 114.921 210.031 117.28L210.941 118.385C213.373 121.339 213.373 125.601 210.941 128.554L210.031 129.66C208.089 132.018 207.66 135.277 208.926 138.057L209.518 139.36C211.103 142.843 210 146.959 206.886 149.183L205.721 150.015C203.235 151.791 201.978 154.827 202.48 157.841L202.715 159.253C203.344 163.027 201.213 166.717 197.631 168.06L196.29 168.562C193.429 169.634 191.429 172.241 191.134 175.282L190.996 176.707C190.627 180.515 187.613 183.528 183.805 183.897L182.38 184.035C179.339 184.33 176.732 186.331 175.66 189.192L175.158 190.532C173.816 194.115 170.125 196.246 166.351 195.617L164.939 195.382C161.926 194.879 158.889 196.137 157.114 198.623L156.282 199.788C154.058 202.901 149.941 204.004 146.459 202.42L145.156 201.827C142.375 200.562 139.117 200.991 136.758 202.933L135.653 203.843C132.699 206.274 128.437 206.274 125.483 203.843L124.378 202.933C122.02 200.991 118.761 200.562 115.981 201.827L114.677 202.42C111.195 204.004 107.078 202.901 104.855 199.788L104.023 198.623C102.247 196.137 99.2107 194.879 96.1973 195.382L94.7851 195.617C91.0113 196.246 87.3204 194.115 85.9783 190.532L85.476 189.192C84.4043 186.331 81.797 184.33 78.7563 184.035L77.3313 183.897C73.5233 183.528 70.5097 180.515 70.1405 176.707L70.0024 175.282C69.7076 172.241 67.707 169.634 64.8462 168.562L63.5055 168.06C59.9228 166.717 57.7918 163.027 58.4208 159.253L58.6562 157.841C59.1585 154.827 57.9008 151.791 55.4149 150.015L54.2499 149.183C51.1366 146.959 50.0336 142.843 51.6179 139.36L52.2108 138.057C53.4758 135.277 53.0468 132.018 51.1052 129.66L50.1952 128.554C47.7636 125.601 47.7636 121.339 50.1952 118.385L51.1052 117.28C53.0468 114.921 53.4758 111.663 52.2108 108.882L51.6179 107.579C50.0336 104.097 51.1366 99.98 54.2499 97.7563L55.4149 96.9242C57.9008 95.1486 59.1585 92.1123 58.6562 89.099L58.4209 87.6867C57.7918 83.913 59.9228 80.222 63.5055 78.8799L64.8462 78.3776C67.707 77.3059 69.7076 74.6986 70.0024 71.6579L70.1405 70.2329C70.5097 66.4249 73.5233 63.4113 77.3313 63.0421L78.7563 62.904C81.797 62.6092 84.4043 60.6086 85.476 57.7478L85.9783 56.4071C87.3204 52.8244 91.0113 50.6935 94.7851 51.3225L96.1973 51.5579C99.2107 52.0601 102.247 50.8024 104.023 48.3165L104.855 47.1515C107.078 44.0383 111.195 42.9352 114.677 44.5195L115.981 45.1124C118.761 46.3774 122.02 45.9485 124.378 44.0068L125.483 43.0969C128.437 40.6652 132.699 40.6652 135.653 43.0969L136.758 44.0068C139.117 45.9485 142.375 46.3774 145.156 45.1124L146.459 44.5195Z" fill="#FD8204"/>
<path d="M143.743 55.1109C147.145 53.5629 151.168 54.6407 153.34 57.6826V57.6826C155.075 60.1116 158.042 61.3405 160.986 60.8497V60.8497C164.674 60.2351 168.28 62.3173 169.591 65.8179V65.8179C170.639 68.6131 173.186 70.568 176.157 70.856V70.856C179.878 71.2167 182.823 74.1613 183.183 77.882V77.882C183.471 80.853 185.426 83.4006 188.221 84.4478V84.4478C191.722 85.7592 193.804 89.3656 193.189 93.0529V93.0529C192.699 95.9972 193.928 98.964 196.357 100.699V100.699C199.398 102.872 200.476 106.894 198.928 110.297V110.297C197.692 113.014 198.111 116.197 200.008 118.502V118.502C202.384 121.388 202.384 125.552 200.008 128.438V128.438C198.111 130.743 197.692 133.926 198.928 136.643V136.643C200.476 140.046 199.398 144.068 196.357 146.241V146.241C193.928 147.976 192.699 150.943 193.189 153.887V153.887C193.804 157.574 191.722 161.181 188.221 162.492V162.492C185.426 163.539 183.471 166.087 183.183 169.058V169.058C182.823 172.779 179.878 175.723 176.157 176.084V176.084C173.186 176.372 170.639 178.327 169.591 181.122V181.122C168.28 184.623 164.674 186.705 160.986 186.09V186.09C158.042 185.6 155.075 186.828 153.34 189.257V189.257C151.168 192.299 147.145 193.377 143.743 191.829V191.829C141.026 190.593 137.842 191.012 135.537 192.909V192.909C132.651 195.285 128.487 195.285 125.601 192.909V192.909C123.297 191.012 120.113 190.593 117.396 191.829V191.829C113.993 193.377 109.971 192.299 107.798 189.257V189.257C106.063 186.828 103.096 185.6 100.152 186.09V186.09C96.4648 186.705 92.8584 184.623 91.547 181.122V181.122C90.4998 178.327 87.9522 176.372 84.9812 176.084V176.084C81.2604 175.723 78.3158 172.779 77.9551 169.058V169.058C77.6671 166.087 75.7123 163.539 72.9171 162.492V162.492C69.4164 161.181 67.3343 157.574 67.9489 153.887V153.887C68.4396 150.943 67.2108 147.976 64.7818 146.241V146.241C61.7399 144.068 60.6621 140.046 62.2101 136.643V136.643C63.4462 133.926 63.027 130.743 61.1299 128.438V128.438C58.7539 125.552 58.7539 121.388 61.1299 118.502V118.502C63.027 116.197 63.4462 113.014 62.2101 110.297V110.297C60.6621 106.894 61.7399 102.872 64.7818 100.699V100.699C67.2108 98.964 68.4396 95.9972 67.9489 93.0529V93.0529C67.3343 89.3656 69.4164 85.7592 72.9171 84.4478V84.4478C75.7123 83.4006 77.6671 80.853 77.9551 77.882V77.882C78.3158 74.1613 81.2604 71.2167 84.9812 70.856V70.856C87.9522 70.568 90.4998 68.6131 91.547 65.8179V65.8179C92.8584 62.3173 96.4648 60.2351 100.152 60.8497V60.8497C103.096 61.3405 106.063 60.1116 107.798 57.6826V57.6826C109.971 54.6407 113.993 53.5629 117.396 55.1109V55.1109C120.113 56.347 123.297 55.9279 125.601 54.0307V54.0307C128.487 51.6548 132.651 51.6548 135.537 54.0307V54.0307C137.842 55.9279 141.026 56.347 143.743 55.1109V55.1109Z" fill="#01B3B5"/>
<circle cx="130.568" cy="123.47" r="57.3529" transform="rotate(15 130.568 123.47)" fill="white"/>
<path fill-rule="evenodd" clip-rule="evenodd" d="M113.615 108.655C114.608 116.425 111.786 123.452 107.311 124.354C102.836 125.255 98.4033 119.689 97.4105 111.92C96.4173 104.151 99.2394 97.1232 103.714 96.2217C108.189 95.3208 112.621 100.887 113.615 108.655Z" fill="black"/>
<path fill-rule="evenodd" clip-rule="evenodd" d="M152.657 119.116C147.912 125.349 146.843 132.845 150.267 135.864C153.692 138.882 160.313 136.278 165.059 130.046C169.803 123.814 170.872 116.317 167.448 113.299C164.023 110.282 157.401 112.886 152.657 119.116Z" fill="black"/>
<path fill-rule="evenodd" clip-rule="evenodd" d="M134.164 99.1196C133.623 107.019 129.533 113.317 125.028 113.187C120.524 113.056 117.311 106.546 117.851 98.6468C118.392 90.7473 122.482 84.4493 126.987 84.5801C131.491 84.7105 134.704 91.22 134.164 99.1196Z" fill="black"/>
<path fill-rule="evenodd" clip-rule="evenodd" d="M139.522 100.562C136.042 107.674 136.433 115.173 140.399 117.312C144.366 119.452 150.403 115.42 153.885 108.309C157.366 101.197 156.973 93.698 153.007 91.559C149.04 89.4199 143.003 93.4504 139.522 100.562Z" fill="black"/>
<path fill-rule="evenodd" clip-rule="evenodd" d="M122.14 122.789C120.58 124.477 114.047 129.695 110.14 131.026C106.232 132.356 101.257 134.505 99.947 142.148C98.6366 149.792 104.736 154.849 109.39 155.792C114.044 156.737 122.925 158.123 128.836 160.714C134.747 163.305 142.716 164.677 146.451 158.023C150.186 151.369 147.332 145.727 144.845 142.293C142.357 138.861 139.117 129.719 138.431 125.737C137.745 121.756 131.16 113.037 122.14 122.789Z" fill="black"/>
<defs>
<filter id="filter0_d_102_43" x="14.9305" y="11.832" width="231.276" height="231.276" filterUnits="userSpaceOnUse" color-interpolation-filters="sRGB">
<feFlood flood-opacity="0" result="BackgroundImageFix"/>
<feColorMatrix in="SourceAlpha" type="matrix" values="0 0 0 0 0 0 0 0 0 0 0 0 0 0 0 0 0 0 127 0" result="hardAlpha"/>
<feOffset dy="4"/>
<feGaussianBlur stdDeviation="9"/>
<feComposite in2="hardAlpha" operator="out"/>
<feColorMatrix type="matrix" values="0 0 0 0 0 0 0 0 0 0 0 0 0 0 0 0 0 0 0.09 0"/>
<feBlend mode="normal" in2="BackgroundImageFix" result="effect1_dropShadow_102_43"/>
<feBlend mode="normal" in="SourceGraphic" in2="effect1_dropShadow_102_43" result="shape"/>
</filter>
</defs>
</svg>
