<svg width="63" height="63" viewBox="0 0 63 63" fill="none" xmlns="http://www.w3.org/2000/svg">
<path d="M2.50436 28.732L2.22376 28.3182L2.50436 28.732L2.67824 28.6141C3.86504 27.8094 4.13324 26.1735 3.2655 25.032L3.13836 24.8647C2.5381 24.0751 2.85585 22.9307 3.77729 22.5635L3.59222 22.099L3.77729 22.5635L3.97246 22.4858C5.30449 21.955 5.9181 20.415 5.31604 19.1136L5.22783 18.923C4.81135 18.0227 5.36768 16.9734 6.34651 16.8129L6.55383 16.7789C7.96882 16.5469 8.89914 15.1748 8.59091 13.7744L8.54575 13.5693C8.33253 12.6005 9.10144 11.6953 10.0919 11.749L10.3017 11.7604C11.7334 11.838 12.937 10.6979 12.937 9.26407L12.937 9.05398C12.937 8.06208 13.8825 7.34331 14.8383 7.60867L15.0407 7.66487C16.4223 8.04846 17.8428 7.19379 18.1511 5.79344L18.1962 5.58826C18.4095 4.61955 19.4874 4.12085 20.3637 4.58545L20.5494 4.68386C21.8162 5.35549 23.3872 4.82616 23.9893 3.52481L23.5355 3.31486L23.9893 3.52481L24.0775 3.33414C24.494 2.43392 25.6539 2.1786 26.4099 2.82073L26.5701 2.95674C27.6629 3.885 29.311 3.70577 30.1787 2.56427L30.3059 2.39703C30.9061 1.60739 32.0939 1.60739 32.6941 2.39703L33.0891 2.09677L32.6941 2.39703L32.8213 2.56428C33.689 3.70577 35.3371 3.885 36.4299 2.95674L36.5901 2.82073C37.3461 2.1786 38.506 2.43392 38.9225 3.33414L39.0107 3.52481C39.6128 4.82616 41.1838 5.35549 42.4506 4.68386L42.6363 4.58545C43.5126 4.12085 44.5905 4.61955 44.8038 5.58826L44.849 5.79344C45.1572 7.19379 46.5777 8.04846 47.9593 7.66487L48.1617 7.60867C49.1175 7.34331 50.063 8.06209 50.063 9.05398L50.063 9.26407C50.063 10.6979 51.2666 11.838 52.6983 11.7604L52.9081 11.749C53.8986 11.6953 54.6675 12.6005 54.4542 13.5693L54.4091 13.7744C54.1009 15.1748 55.0312 16.5469 56.4462 16.7789L56.6535 16.8129C57.6323 16.9734 58.1886 18.0227 57.7722 18.923L57.684 19.1136C57.0819 20.415 57.6955 21.955 59.0275 22.4858L59.2227 22.5635C60.1442 22.9307 60.4619 24.0751 59.8616 24.8647L59.7345 25.032C58.8668 26.1735 59.135 27.8094 60.3218 28.6141L60.4956 28.732C61.3166 29.2887 61.3809 30.4746 60.6249 31.1168L60.4648 31.2528C59.372 32.1811 59.2822 33.8364 60.2683 34.8774L60.4128 35.0299C61.0949 35.7501 60.9027 36.9221 60.0264 37.3867L59.8408 37.4851C58.5739 38.1568 58.1304 39.7542 58.8697 40.9828L58.978 41.1628C59.4893 42.0127 59.0497 43.1161 58.094 43.3814L57.8916 43.4376C56.5099 43.8213 55.7334 45.2859 56.1913 46.6448L56.2583 46.8438C56.5751 47.7838 55.9085 48.7669 54.9181 48.8206L54.7083 48.832C53.2765 48.9096 52.2033 50.1731 52.3583 51.5986L52.381 51.8074C52.4883 52.7935 51.626 53.6103 50.6472 53.4498L50.4398 53.4158C49.0248 53.1839 47.7051 54.1871 47.5501 55.6126L47.5273 55.8214C47.4201 56.8075 46.4024 57.4199 45.4809 57.0527L45.2858 56.975C43.9537 56.4443 42.4492 57.1403 41.9913 58.4991L41.9242 58.6982C41.6075 59.6382 40.482 60.0174 39.661 59.4608L39.4871 59.3429C38.3003 58.5383 36.6813 58.8946 35.942 60.1233L35.8337 60.3033C35.3223 61.1532 34.1416 61.2816 33.4595 60.5615L33.315 60.409C32.3289 59.368 30.6711 59.368 29.685 60.409L29.5406 60.5615C28.8584 61.2816 27.6777 61.1532 27.1663 60.3033L27.058 60.1232C26.3187 58.8946 24.6997 58.5383 23.5129 59.3429L23.339 59.4608C22.518 60.0174 21.3925 59.6382 21.0758 58.6982L21.0087 58.4991C20.5508 57.1403 19.0463 56.4442 17.7142 56.975L17.5191 57.0527C16.5976 57.4199 15.5799 56.8075 15.4726 55.8215L15.4499 55.6126C15.2949 54.1871 13.9751 53.1839 12.5602 53.4158L12.3528 53.4498L12.4337 53.9432L12.3528 53.4498C11.374 53.6103 10.5117 52.7935 10.619 51.8074L10.6417 51.5986C10.7967 50.1731 9.72348 48.9096 8.2917 48.832L8.08193 48.8206C7.09148 48.7669 6.42495 47.7838 6.74166 46.8438L6.80874 46.6448C7.26657 45.2859 6.49005 43.8213 5.10844 43.4376L4.90601 43.3814C3.95027 43.1161 3.51065 42.0127 4.02202 41.1628L4.13033 40.9828C4.86956 39.7542 4.42606 38.1568 3.15922 37.4851L2.9736 37.3867C2.09725 36.9221 1.9051 35.7501 2.58722 35.0299L2.22422 34.6861L2.58723 35.0299L2.7317 34.8774C3.71777 33.8364 3.62802 32.1811 2.53518 31.2528L2.37506 31.1168C1.61908 30.4746 1.68338 29.2887 2.50436 28.732Z" fill="white" stroke="black"/>
<circle cx="31.5002" cy="31.5002" r="20.92" fill="#134C5F" stroke="black"/>
<path d="M16.9696 28.7152C15.6156 19.8405 22.4844 11.8442 31.4618 11.8442C40.4393 11.8442 47.308 19.8404 45.954 28.7152L43.8527 42.4884C43.1083 47.3674 38.9125 50.9717 33.977 50.9717H28.9467C24.0112 50.9717 19.8153 47.3674 19.071 42.4884L16.9696 28.7152Z" fill="#F6D5A9"/>
<path d="M24.8785 15.329C24.8785 17.0236 23.4742 18.3974 21.7419 18.3974C20.0096 18.3974 18.6053 17.0236 18.6053 15.329C18.6053 13.6343 20.0096 12.2605 21.7419 12.2605C23.4742 12.2605 24.8785 13.6343 24.8785 15.329Z" fill="#D69A6E"/>
<path d="M20.1601 30.1592C20.1601 32.5317 18.1941 34.4551 15.7689 34.4551C13.3436 34.4551 8.56813 28.748 8.56813 26.3754C8.56813 24.0029 10.5342 22.0796 12.9594 22.0796C15.3846 22.0796 20.1601 27.7866 20.1601 30.1592Z" fill="#D69A6E"/>
<path d="M9.82277 23.307L19.2326 13.4879L24.8018 16.0067L19.6754 38.2761L9.82277 23.307Z" fill="#D69A6E"/>
<path d="M8.64486 36.8192L8.56813 26.3754L16.7617 28.4942L19.6754 36.6111L8.64486 36.8192Z" fill="#D69A6E"/>
<path d="M19.8837 36.8192C19.8837 39.8077 17.3678 42.2304 14.2643 42.2304C11.1608 42.2304 8.64486 39.8077 8.64486 36.8192C8.64486 33.8306 11.1608 31.4079 14.2643 31.4079C17.3678 31.4079 19.8837 33.8306 19.8837 36.8192Z" fill="#D69A6E"/>
<path d="M38.1218 15.329C38.1218 17.0236 39.5261 18.3974 41.2584 18.3974C42.9907 18.3974 44.395 17.0236 44.395 15.329C44.395 13.6343 42.9907 12.2605 41.2584 12.2605C39.5261 12.2605 38.1218 13.6343 38.1218 15.329Z" fill="#D69A6E"/>
<path d="M42.7329 29.9764C42.7329 32.3489 44.6989 34.2722 47.1241 34.2722C49.5494 34.2722 54.4321 28.748 54.4321 26.3754C54.4321 24.0029 52.4661 22.0796 50.0408 22.0796C47.6156 22.0796 42.7329 27.6038 42.7329 29.9764Z" fill="#D69A6E"/>
<path d="M53.1775 23.307L43.7676 13.4879L38.1984 16.0067L43.3248 38.2761L53.1775 23.307Z" fill="#D69A6E"/>
<path d="M54.3554 36.8192L54.4321 26.3754L46.2385 28.4942L43.3248 36.6111L54.3554 36.8192Z" fill="#D69A6E"/>
<path d="M43.1166 36.8192C43.1166 39.8077 45.6324 42.2304 48.7359 42.2304C51.8394 42.2304 54.3554 39.8077 54.3554 36.8192C54.3554 33.8306 51.8394 31.4079 48.7359 31.4079C45.6324 31.4079 43.1166 33.8306 43.1166 36.8192Z" fill="#D69A6E"/>
<path d="M27.0912 31.4079C27.0912 32.0976 26.5321 32.6567 25.8425 32.6567C25.1528 32.6567 24.5937 32.0976 24.5937 31.4079C24.5937 30.7183 25.1528 30.1592 25.8425 30.1592C26.5321 30.1592 27.0912 30.7183 27.0912 31.4079Z" fill="black"/>
<path d="M37.9137 31.4079C37.9137 32.0976 37.3546 32.6567 36.6649 32.6567C35.9753 32.6567 35.4162 32.0976 35.4162 31.4079C35.4162 30.7183 35.9753 30.1592 36.6649 30.1592C37.3546 30.1592 37.9137 30.7183 37.9137 31.4079Z" fill="black"/>
<path d="M34.5837 43.4792C34.5837 44.6286 33.0928 45.5604 31.2537 45.5604C29.4146 45.5604 27.9237 44.6286 27.9237 43.4792C27.9237 42.3297 29.4146 41.3979 31.2537 41.3979C33.0928 41.3979 34.5837 42.3297 34.5837 43.4792Z" fill="black"/>
<path d="M34.8723 43.4091C34.8723 44.5585 33.3814 45.4903 31.5423 45.4903C29.7032 45.4903 28.2123 44.5585 28.2123 43.4091C28.2123 42.2597 29.7032 41.3279 31.5423 41.3279C33.3814 41.3279 34.8723 42.2597 34.8723 43.4091Z" fill="black"/>
<path d="M31.0423 43.8253V47.1553H32.0423V43.8253H31.0423ZM26.4636 45.4903C26.4636 46.8278 27.4868 47.7109 28.5728 48.0687C29.653 48.4246 31.0098 48.3393 31.8841 47.5202L31.2005 46.7904C30.6784 47.2795 29.7458 47.4023 28.8857 47.1189C28.0315 46.8375 27.4636 46.2342 27.4636 45.4903H26.4636ZM35.6211 45.4903C35.6211 46.2429 35.0689 46.8417 34.2372 47.1196C33.401 47.399 32.4549 47.2865 31.8705 46.7781L31.2142 47.5326C32.1336 48.3323 33.4769 48.4279 34.5541 48.0681C35.6357 47.7067 36.6211 46.819 36.6211 45.4903H35.6211ZM34.3723 43.4091C34.3723 43.7492 34.1504 44.1328 33.632 44.4568C33.1207 44.7763 32.3832 44.9903 31.5423 44.9903V45.9903C32.5406 45.9903 33.4681 45.7384 34.162 45.3048C34.8488 44.8755 35.3723 44.2184 35.3723 43.4091H34.3723ZM31.5423 44.9903C30.7015 44.9903 29.964 44.7763 29.4527 44.4568C28.9343 44.1328 28.7123 43.7492 28.7123 43.4091H27.7123C27.7123 44.2184 28.2358 44.8755 28.9227 45.3048C29.6166 45.7384 30.5441 45.9903 31.5423 45.9903V44.9903ZM28.7123 43.4091C28.7123 43.069 28.9343 42.6854 29.4527 42.3614C29.964 42.0419 30.7015 41.8279 31.5423 41.8279V40.8279C30.5441 40.8279 29.6166 41.0797 28.9227 41.5134C28.2358 41.9427 27.7123 42.5998 27.7123 43.4091H28.7123ZM31.5423 41.8279C32.3832 41.8279 33.1207 42.0419 33.632 42.3614C34.1503 42.6854 34.3723 43.069 34.3723 43.4091H35.3723C35.3723 42.5998 34.8488 41.9427 34.162 41.5134C33.4681 41.0797 32.5406 40.8279 31.5423 40.8279V41.8279Z" fill="black"/>
</svg>
