<svg width="35" height="28" viewBox="0 0 35 28" fill="none" xmlns="http://www.w3.org/2000/svg">
<circle cx="26.9501" cy="4.12223" r="3.12773" fill="#4E4E4E"/>
<circle cx="8.184" cy="4.12223" r="3.12773" fill="#4E4E4E"/>
<path d="M19.6339 12.2544C21.7708 12.2544 22.9243 14.7616 21.5331 16.3855L19.5088 18.7463C19.7277 20.1466 20.4666 21.4129 21.578 22.2924C22.6894 23.172 24.0916 23.6 25.5047 23.4912C26.9179 23.3824 28.238 22.7447 29.2017 21.7054C30.1653 20.6661 30.7016 19.3016 30.7036 17.8843C30.7036 17.3866 30.9013 16.9093 31.2532 16.5573C31.6051 16.2054 32.0825 16.0077 32.5802 16.0077C33.0779 16.0077 33.5552 16.2054 33.9072 16.5573C34.2591 16.9093 34.4568 17.3866 34.4568 17.8843C34.4568 19.8537 33.8372 21.7731 32.6857 23.3707C31.5342 24.9684 29.9092 26.1632 28.0409 26.786C26.1726 27.4087 24.1557 27.4279 22.2759 26.8407C20.3961 26.2535 18.7487 25.0897 17.5671 23.5142C16.3855 25.0897 14.7381 26.2535 12.8583 26.8407C10.9785 27.4279 8.96163 27.4087 7.09333 26.786C5.22502 26.1632 3.60003 24.9684 2.44852 23.3707C1.29701 21.7731 0.677368 19.8537 0.677368 17.8843C0.677368 17.3866 0.875085 16.9093 1.22702 16.5573C1.57896 16.2054 2.05629 16.0077 2.554 16.0077C3.05172 16.0077 3.52905 16.2054 3.88099 16.5573C4.23293 16.9093 4.43064 17.3866 4.43064 17.8843C4.42846 19.3041 4.96282 20.6723 5.92667 21.7149C6.89053 22.7574 8.21269 23.3972 9.62832 23.5062C11.0439 23.6152 12.4485 23.1853 13.5606 22.3027C14.6727 21.42 15.4102 20.1497 15.6254 18.7463L13.6011 16.3855C12.2099 14.7616 13.3634 12.2544 15.5028 12.2544L19.6339 12.2544Z" fill="#4E4E4E"/>
</svg>
