<svg width="52" height="40" viewBox="0 0 52 40" fill="none" xmlns="http://www.w3.org/2000/svg">
<circle cx="40" cy="4.7619" r="4.7619" fill="black"/>
<circle cx="11.4286" cy="4.7619" r="4.7619" fill="black"/>
<path d="M28.861 17.1429C32.1143 17.1429 33.8705 20.96 31.7524 23.4324L28.6705 27.0267C29.0037 29.1586 30.1286 31.0865 31.8207 32.4256C33.5129 33.7646 35.6477 34.4164 37.7992 34.2507C39.9506 34.085 41.9605 33.1142 43.4277 31.5318C44.8948 29.9495 45.7114 27.8721 45.7143 25.7143C45.7143 24.9565 46.0153 24.2298 46.5511 23.694C47.0869 23.1582 47.8137 22.8571 48.5714 22.8571C49.3292 22.8571 50.0559 23.1582 50.5917 23.694C51.1275 24.2298 51.4286 24.9565 51.4286 25.7143C51.4286 28.7126 50.4852 31.6349 48.732 34.0673C46.9789 36.4996 44.5049 38.3187 41.6604 39.2669C38.8159 40.2151 35.7453 40.2442 32.8833 39.3502C30.0214 38.4562 27.5133 36.6844 25.7143 34.2857C23.9153 36.6844 21.4072 38.4562 18.5452 39.3502C15.6833 40.2442 12.6126 40.2151 9.76817 39.2669C6.92372 38.3187 4.44969 36.4996 2.69654 34.0673C0.943391 31.6349 0 28.7126 0 25.7143C1.12915e-08 24.9565 0.30102 24.2298 0.836838 23.694C1.37266 23.1582 2.09938 22.8571 2.85714 22.8571C3.6149 22.8571 4.34163 23.1582 4.87745 23.694C5.41327 24.2298 5.71429 24.9565 5.71429 25.7143C5.71097 27.8759 6.52452 29.959 7.99196 31.5462C9.45941 33.1335 11.4724 34.1076 13.6276 34.2736C15.7829 34.4395 17.9213 33.785 19.6144 32.4412C21.3076 31.0973 22.4304 29.1633 22.7581 27.0267L19.6762 23.4324C17.5581 20.96 19.3143 17.1429 22.5714 17.1429H28.861Z" fill="black"/>
</svg>
