<svg width="257" height="274" viewBox="0 0 257 274" fill="none" xmlns="http://www.w3.org/2000/svg">
<g filter="url(#filter0_d_623_16)">
<path d="M114.875 254.441L106.627 213.74L163.122 206.26L170.35 241.63L140.791 234.877L114.875 254.441Z" fill="#FF8A00"/>
</g>
<g filter="url(#filter1_d_623_16)">
<path d="M86.7148 248.089L112.769 215.226L65.6257 184.068L42.9303 212.601L72.4891 219.354L86.7148 248.089Z" fill="#FFDB80"/>
</g>
<g filter="url(#filter2_d_623_16)">
<path d="M150.211 25.9377C153.701 24.1693 157.935 25.1365 160.247 28.2303L162.603 31.3828C164.452 33.8556 167.585 35.024 170.64 34.3793L174.478 33.5694C178.292 32.7646 182.105 34.7899 183.525 38.3742L185.023 42.1561C186.155 45.014 188.851 46.948 191.945 47.1226L195.881 47.3448C199.739 47.5626 202.86 50.4882 203.303 54.3026L203.793 58.5179C204.145 61.553 206.215 64.1 209.121 65.0737L212.951 66.3572C216.573 67.5712 218.794 71.1753 218.251 74.957L217.623 79.3285C217.191 82.3343 218.507 85.3039 221.02 86.9921L224.495 89.3265C227.631 91.4334 228.821 95.4584 227.344 98.962L225.581 103.145C224.407 105.93 224.9 109.117 226.858 111.387L229.695 114.677C232.143 117.516 232.244 121.693 229.937 124.7L227.148 128.334C225.311 130.728 224.966 133.927 226.253 136.618L228.183 140.653C229.797 144.027 228.813 148.09 225.82 150.412L222.242 153.188C219.855 155.04 218.697 158.054 219.243 160.991L220.072 165.452C220.758 169.143 218.752 172.838 215.257 174.32L211.209 176.037C208.415 177.221 206.51 179.86 206.284 182.862L205.943 187.37C205.658 191.146 202.746 194.234 198.972 194.762L194.791 195.348C191.767 195.771 189.226 197.859 188.234 200.737L186.79 204.923C185.542 208.543 181.9 210.808 178.1 210.326L174.083 209.817C171.035 209.431 168.014 210.815 166.306 213.379L163.934 216.941C161.787 220.164 157.651 221.431 154.097 219.956L150.472 218.451C147.622 217.268 144.321 217.832 141.997 219.9L138.921 222.637C136.006 225.231 131.663 225.393 128.618 223.022L125.554 220.635C123.115 218.735 119.773 218.425 116.984 219.838L113.429 221.64C109.939 223.408 105.705 222.441 103.393 219.347L101.037 216.195C99.1884 213.722 96.0547 212.554 92.9996 213.198L89.1621 214.008C85.3481 214.813 81.5346 212.788 80.1148 209.203L78.6168 205.422C77.4848 202.564 74.7895 200.63 71.695 200.455L67.7593 200.233C63.901 200.015 60.7801 197.09 60.337 193.275L59.8473 189.06C59.4947 186.025 57.4246 183.478 54.519 182.504L50.6892 181.221C47.0668 180.007 44.8455 176.402 45.389 172.621L46.0173 168.249C46.4492 165.243 45.1328 162.274 42.62 160.586L39.1452 158.251C36.009 156.144 34.8188 152.119 36.2959 148.616L38.0593 144.433C39.2335 141.648 38.7395 138.461 36.7819 136.19L33.945 132.901C31.4968 130.061 31.3962 125.885 33.7035 122.878L36.4919 119.244C38.3285 116.85 38.6741 113.651 37.3867 110.959L35.4572 106.925C33.8434 103.551 34.8271 99.4876 37.8197 97.1658L41.3977 94.3897C43.785 92.5375 44.9433 89.5241 44.3972 86.5863L43.5682 82.1259C42.8822 78.4351 44.8885 74.7395 48.3826 73.2579L52.4314 71.5411C55.2254 70.3564 57.1296 67.7173 57.3563 64.7157L57.6967 60.2076C57.9818 56.4316 60.8938 53.3437 64.6678 52.8154L68.8494 52.23C71.8733 51.8067 74.4142 49.7182 75.4065 46.8405L76.8495 42.6551C78.0979 39.0344 81.7399 36.7697 85.5396 37.2513L89.5568 37.7604C92.6046 38.1466 95.6262 36.7628 97.3342 34.1984L99.7065 30.6368C101.853 27.4141 105.989 26.1463 109.543 27.6217L113.168 29.1268C116.018 30.3101 119.319 29.7458 121.643 27.6774L124.719 24.9405C127.634 22.3464 131.977 22.1844 135.022 24.5562L138.086 26.9426C140.525 28.8424 143.867 29.1532 146.656 27.7397L150.211 25.9377Z" fill="white"/>
</g>
<path d="M146.44 41.519C149.929 39.7506 154.163 40.7178 156.476 43.8116L157.383 45.0251C159.231 47.4979 162.365 48.6663 165.42 48.0216L166.874 47.7148C170.688 46.9099 174.501 48.9352 175.921 52.5195L176.522 54.038C177.654 56.8959 180.35 58.8299 183.444 59.0045L184.962 59.0902C188.82 59.308 191.941 62.2336 192.384 66.048L192.591 67.8297C192.943 70.8648 195.014 73.4118 197.919 74.3855L199.461 74.9022C203.083 76.1162 205.305 79.7203 204.761 83.502L204.483 85.4356C204.051 88.4413 205.368 91.411 207.881 93.0991L209.354 94.0887C212.49 96.1957 213.68 100.221 212.203 103.724L211.399 105.631C210.225 108.416 210.719 111.603 212.677 113.873L213.934 115.332C216.383 118.171 216.483 122.348 214.176 125.355L212.891 127.03C211.054 129.423 210.709 132.622 211.996 135.314L212.877 137.156C214.491 140.53 213.507 144.593 210.514 146.915L208.881 148.182C206.494 150.034 205.336 153.048 205.882 155.986L206.264 158.041C206.95 161.732 204.943 165.427 201.449 166.909L199.654 167.67C196.86 168.855 194.956 171.494 194.729 174.496L194.574 176.551C194.289 180.327 191.377 183.415 187.603 183.943L185.83 184.191C182.806 184.614 180.265 186.703 179.273 189.581L178.635 191.432C177.386 195.053 173.744 197.317 169.945 196.836L168.327 196.631C165.28 196.244 162.258 197.628 160.55 200.193L159.547 201.698C157.401 204.921 153.265 206.189 149.711 204.713L148.313 204.133C145.463 202.95 142.163 203.514 139.838 205.582L138.603 206.681C135.688 209.275 131.345 209.437 128.3 207.065L127.139 206.161C124.7 204.262 121.359 203.951 118.57 205.364L117.201 206.058C113.712 207.826 109.478 206.859 107.165 203.765L106.258 202.552C104.41 200.079 101.276 198.911 98.2212 199.555L96.7675 199.862C92.9535 200.667 89.14 198.642 87.7202 195.057L87.1188 193.539C85.9868 190.681 83.2915 188.747 80.197 188.572L78.6795 188.487C74.8213 188.269 71.7003 185.343 71.2572 181.529L71.0502 179.747C70.6976 176.712 68.6275 174.165 65.7219 173.191L64.1801 172.675C60.5577 171.461 58.3364 167.857 58.8799 164.075L59.1578 162.141C59.5898 159.136 58.2733 156.166 55.7605 154.478L54.2874 153.488C51.1513 151.381 49.961 147.356 51.4381 143.853L52.242 141.946C53.4161 139.161 52.9222 135.974 50.9645 133.703L49.7067 132.245C47.2585 129.406 47.1578 125.229 49.4651 122.222L50.7502 120.547C52.5868 118.154 52.9323 114.955 51.645 112.263L50.7642 110.421C49.1504 107.047 50.1341 102.984 53.1266 100.662L54.76 99.3948C57.1472 97.5426 58.3055 94.5292 57.7595 91.5914L57.3774 89.5358C56.6914 85.845 58.6977 82.1495 62.1918 80.6678L63.987 79.9066C66.781 78.7219 68.6852 76.0828 68.9119 73.0812L69.0671 71.0262C69.3522 67.2502 72.2642 64.1623 76.0382 63.634L77.8109 63.3859C80.8349 62.9625 83.3758 60.874 84.368 57.9963L85.0063 56.1451C86.2547 52.5244 89.8966 50.2597 93.6963 50.7412L95.3136 50.9462C98.3614 51.3324 101.383 49.9486 103.091 47.3843L104.094 45.8789C106.24 42.6561 110.376 41.3883 113.93 42.8637L115.328 43.444C118.178 44.6274 121.478 44.063 123.803 41.9947L125.038 40.8958C127.953 38.3017 132.296 38.1398 135.341 40.5115L136.502 41.4155C138.941 43.3153 142.282 43.6261 145.071 42.2126L146.44 41.519Z" fill="#FF8A00"/>
<path d="M143.849 52.5979C147.274 50.8618 151.445 51.8145 153.715 54.8519C155.524 57.2716 158.595 58.4205 161.584 57.7897C165.316 57.0021 169.048 58.9839 170.437 62.4913L170.484 62.6098C171.596 65.4166 174.243 67.3159 177.282 67.4874C181.071 67.7013 184.136 70.5746 184.571 74.3206L184.595 74.5237C184.945 77.5332 186.997 80.0587 189.878 81.0243C193.47 82.2281 195.673 85.8019 195.134 89.5518L195.099 89.7986C194.667 92.8043 196.002 95.7866 198.515 97.4748C201.651 99.5817 202.866 103.623 201.389 107.127L201.27 107.408C200.096 110.193 200.59 113.38 202.548 115.65L202.677 115.801C205.126 118.64 205.226 122.817 202.919 125.824L202.708 126.099C200.871 128.492 200.526 131.692 201.813 134.383L201.945 134.658C203.558 138.033 202.575 142.096 199.582 144.418L199.338 144.607C196.951 146.46 195.793 149.473 196.339 152.411L196.401 152.749C197.087 156.439 195.081 160.135 191.587 161.617L191.401 161.695C188.607 162.88 186.703 165.519 186.477 168.521L186.454 168.823C186.169 172.599 183.227 175.691 179.453 176.22C176.429 176.643 173.866 178.735 172.873 181.612L172.792 181.849C171.554 185.439 167.943 187.685 164.175 187.207C161.153 186.824 158.157 188.196 156.463 190.739L156.349 190.911C154.241 194.076 150.179 195.321 146.688 193.872C143.889 192.71 140.648 193.264 138.365 195.295L138.269 195.381C135.416 197.919 131.166 198.078 128.187 195.757C125.8 193.898 122.524 193.597 119.795 194.98C116.369 196.716 112.198 195.764 109.928 192.726C108.119 190.306 105.049 189.158 102.059 189.788C98.3271 190.576 94.5954 188.594 93.2062 185.087L93.1592 184.968C92.0475 182.162 89.4004 180.262 86.3614 180.091C82.5722 179.877 79.5071 177.004 79.0719 173.257L79.0483 173.054C78.6987 170.045 76.646 167.519 73.7649 166.554C70.1729 165.35 67.9704 161.776 68.5093 158.026L68.5447 157.779C68.9767 154.774 67.6415 151.791 65.1287 150.103C61.9925 147.996 60.7778 143.955 62.2548 140.451L62.3733 140.17C63.5474 137.385 63.0535 134.198 61.0958 131.928L60.9659 131.777C58.5176 128.938 58.417 124.761 60.7243 121.754L60.9355 121.479C62.7721 119.086 63.1176 115.886 61.8303 113.195L61.6986 112.92C60.0848 109.546 61.0685 105.482 64.0611 103.16L64.3053 102.971C66.6925 101.119 67.8508 98.1051 67.3047 95.1673L67.242 94.8295C66.5559 91.1387 68.5623 87.4432 72.0564 85.9616L72.2418 85.8829C75.0359 84.6982 76.9401 82.0591 77.1667 79.0575L77.1896 78.7547C77.4747 74.9787 80.4163 71.8867 84.1903 71.3584C87.2143 70.9351 89.7777 68.8434 90.7699 65.9657L90.8514 65.7293C92.0893 62.1391 95.7006 59.8934 99.4684 60.3709C102.491 60.7539 105.487 59.3817 107.18 56.839L107.295 56.6674C109.403 53.5024 113.465 52.2572 116.955 53.7063C119.754 54.8685 122.995 54.3142 125.278 52.2829L125.375 52.1971C128.227 49.6588 132.477 49.5003 135.457 51.8211C137.843 53.6801 141.119 53.9811 143.849 52.5979Z" fill="#FFDB80"/>
<ellipse cx="58.3241" cy="59.5539" rx="58.3241" ry="59.5539" transform="matrix(0.974772 0.222678 -0.235244 0.971807 88.9779 52.926)" fill="white"/>
<g clip-path="url(#clip0_623_16)">
<path fill-rule="evenodd" clip-rule="evenodd" d="M134.407 118.921C141.624 120.778 139.917 127.271 143.039 134.532C146.046 141.488 150.839 141.678 148.934 151.288C148.277 154.565 144.335 158.777 139.922 159.037C135.151 159.313 131.015 156.013 126.283 153.887C122.813 152.328 114.33 155.531 109.89 151.912C104.113 147.193 104.461 141.825 106.58 138.352C110.085 132.632 112.143 133.395 117.879 129.3C124.087 124.881 126.101 116.786 134.407 118.921Z" fill="#363636"/>
<path fill-rule="evenodd" clip-rule="evenodd" d="M152.993 94.3687C158.069 96.1414 158.904 103.814 156.462 110.25C154.024 116.673 150.186 119.892 144.175 117.655C138.164 115.418 138.389 109.548 140.827 103.125C143.269 96.6891 147.919 92.5828 152.993 94.3687Z" fill="#363636"/>
<path fill-rule="evenodd" clip-rule="evenodd" d="M165.745 118.849C169.356 121.903 167.447 130.69 163.913 134.786C160.379 138.883 156.258 140.575 151.978 137.814C147.702 135.04 148.944 127.828 152.854 123.246C156.77 118.637 162.134 115.795 165.745 118.849Z" fill="#363636"/>
<path fill-rule="evenodd" clip-rule="evenodd" d="M127.899 88.6362C122.541 88.0252 118.274 94.5321 117.507 101.351C116.744 108.156 118.703 112.7 125.11 113.3C131.517 113.9 134.009 108.548 134.772 101.742C135.552 94.9264 133.26 89.2339 127.899 88.6362Z" fill="#363636"/>
<path fill-rule="evenodd" clip-rule="evenodd" d="M105.265 105.033C100.632 106.203 98.31 114.896 99.594 120.093C100.878 125.291 103.791 128.589 108.889 127.971C113.99 127.339 116.186 120.345 114.788 114.55C113.384 108.726 109.899 103.862 105.265 105.033Z" fill="#363636"/>
</g>
<defs>
<filter id="filter0_d_623_16" x="104.627" y="205.26" width="69.7235" height="54.1807" filterUnits="userSpaceOnUse" color-interpolation-filters="sRGB">
<feFlood flood-opacity="0" result="BackgroundImageFix"/>
<feColorMatrix in="SourceAlpha" type="matrix" values="0 0 0 0 0 0 0 0 0 0 0 0 0 0 0 0 0 0 127 0" result="hardAlpha"/>
<feOffset dx="1" dy="2"/>
<feGaussianBlur stdDeviation="1.5"/>
<feComposite in2="hardAlpha" operator="out"/>
<feColorMatrix type="matrix" values="0 0 0 0 0 0 0 0 0 0 0 0 0 0 0 0 0 0 0.08 0"/>
<feBlend mode="normal" in2="BackgroundImageFix" result="effect1_dropShadow_623_16"/>
<feBlend mode="normal" in="SourceGraphic" in2="effect1_dropShadow_623_16" result="shape"/>
</filter>
<filter id="filter1_d_623_16" x="40.9303" y="183.068" width="75.8385" height="70.0217" filterUnits="userSpaceOnUse" color-interpolation-filters="sRGB">
<feFlood flood-opacity="0" result="BackgroundImageFix"/>
<feColorMatrix in="SourceAlpha" type="matrix" values="0 0 0 0 0 0 0 0 0 0 0 0 0 0 0 0 0 0 127 0" result="hardAlpha"/>
<feOffset dx="1" dy="2"/>
<feGaussianBlur stdDeviation="1.5"/>
<feComposite in2="hardAlpha" operator="out"/>
<feColorMatrix type="matrix" values="0 0 0 0 0 0 0 0 0 0 0 0 0 0 0 0 0 0 0.08 0"/>
<feBlend mode="normal" in2="BackgroundImageFix" result="effect1_dropShadow_623_16"/>
<feBlend mode="normal" in="SourceGraphic" in2="effect1_dropShadow_623_16" result="shape"/>
</filter>
<filter id="filter2_d_623_16" x="30.0386" y="21.8805" width="205.563" height="207.817" filterUnits="userSpaceOnUse" color-interpolation-filters="sRGB">
<feFlood flood-opacity="0" result="BackgroundImageFix"/>
<feColorMatrix in="SourceAlpha" type="matrix" values="0 0 0 0 0 0 0 0 0 0 0 0 0 0 0 0 0 0 127 0" result="hardAlpha"/>
<feOffset dx="1" dy="2"/>
<feGaussianBlur stdDeviation="1.5"/>
<feComposite in2="hardAlpha" operator="out"/>
<feColorMatrix type="matrix" values="0 0 0 0 0 0 0 0 0 0 0 0 0 0 0 0 0 0 0.08 0"/>
<feBlend mode="normal" in2="BackgroundImageFix" result="effect1_dropShadow_623_16"/>
<feBlend mode="normal" in="SourceGraphic" in2="effect1_dropShadow_623_16" result="shape"/>
</filter>
<clipPath id="clip0_623_16">
<rect width="69.1816" height="66.4852" fill="white" transform="matrix(0.974772 0.222679 -0.235243 0.971808 106.747 83.7484)"/>
</clipPath>
</defs>
</svg>
